M48
; DRILL file {KiCad (6.0.4)} date Sun Nov 13 15:40:43 2022
; FORMAT={-:-/ absolute / inch / decimal}
; #@! TF.CreationDate,2022-11-13T15:40:43-05:00
; #@! TF.GenerationSoftware,Kicad,Pcbnew,(6.0.4)
; #@! TF.FileFunction,NonPlated,1,2,NPTH
FMAT,2
INCH
; #@! TA.AperFunction,NonPlated,NPTH,ComponentDrill
T1C0.0118
; #@! TA.AperFunction,NonPlated,NPTH,ComponentDrill
T2C0.0354
; #@! TA.AperFunction,NonPlated,NPTH,ComponentDrill
T3C0.0512
; #@! TA.AperFunction,NonPlated,NPTH,ComponentDrill
T4C0.0787
; #@! TA.AperFunction,NonPlated,NPTH,ComponentDrill
T5C0.1614
%
G90
G05
T2
X-0.0591Y-0.251
X0.0591Y-0.251
T3
X0.4823Y2.3125
X0.4823Y1.6137
X0.4823Y0.9149
X0.4823Y0.216
X0.9154Y1.8794
X0.9154Y1.1806
X0.9154Y0.4818
X0.9154Y-0.217
X1.1811Y2.3125
X1.1811Y1.6137
X1.1811Y0.9149
X1.1811Y0.216
X1.6142Y1.8794
X1.6142Y1.1806
X1.6142Y0.4818
X1.6142Y-0.217
X1.8799Y2.3125
X1.8799Y1.6137
X1.8799Y0.9149
X1.8799Y0.216
X2.313Y1.8794
X2.313Y1.1806
X2.313Y0.4818
X2.313Y-0.217
X2.5787Y2.3125
X2.5787Y1.6137
X2.5787Y0.9149
X2.5787Y0.216
X3.0118Y1.8794
X3.0118Y1.1806
X3.0118Y0.4818
X3.0118Y-0.217
X3.2776Y2.3125
X3.2776Y1.6137
X3.2776Y0.9149
X3.2776Y0.216
X3.7106Y1.8794
X3.7106Y1.1806
X3.7106Y0.4818
X3.7106Y-0.217
X3.9764Y2.3125
X3.9764Y1.6137
X3.9764Y0.9149
X3.9764Y0.216
X4.4094Y1.8794
X4.4094Y1.1806
X4.4094Y0.4818
X4.4094Y-0.217
X4.6752Y2.3125
X4.6752Y1.6137
X4.6752Y0.9149
X4.6752Y0.216
X5.1083Y1.8794
X5.1083Y1.1806
X5.1083Y0.4818
X5.1083Y-0.217
X5.374Y2.3125
X5.374Y1.6137
X5.374Y0.9149
X5.374Y0.216
X5.8071Y1.8794
X5.8071Y1.1806
X5.8071Y0.4818
X5.8071Y-0.217
X6.0728Y2.3125
X6.0728Y1.6137
X6.0728Y0.9149
X6.0728Y0.216
X6.5059Y1.8794
X6.5059Y1.1806
X6.5059Y0.4818
X6.5059Y-0.217
X6.7717Y2.3125
X6.7717Y1.6137
X6.7717Y0.9149
X6.7717Y0.216
X7.2047Y1.8794
X7.2047Y1.1806
X7.2047Y0.4818
X7.2047Y-0.217
T1
G00X0.6043Y2.1353
M15
G01X0.6043Y1.9857
M16
G05
G00X0.6043Y1.4365
M15
G01X0.6043Y1.2869
M16
G05
G00X0.6043Y0.7377
M15
G01X0.6043Y0.5881
M16
G05
G00X0.6043Y0.0389
M15
G01X0.6043Y-0.1107
M16
G05
G00X0.6043Y2.1353
M15
G01X0.7933Y2.1353
M16
G05
G00X0.6043Y1.9857
M15
G01X0.7933Y1.9857
M16
G05
G00X0.6043Y1.4365
M15
G01X0.7933Y1.4365
M16
G05
G00X0.6043Y1.2869
M15
G01X0.7933Y1.2869
M16
G05
G00X0.6043Y0.7377
M15
G01X0.7933Y0.7377
M16
G05
G00X0.6043Y0.5881
M15
G01X0.7933Y0.5881
M16
G05
G00X0.6043Y0.0389
M15
G01X0.7933Y0.0389
M16
G05
G00X0.6043Y-0.1107
M15
G01X0.7933Y-0.1107
M16
G05
G00X0.7933Y2.1353
M15
G01X0.7933Y1.9857
M16
G05
G00X0.7933Y1.4365
M15
G01X0.7933Y1.2869
M16
G05
G00X0.7933Y0.7377
M15
G01X0.7933Y0.5881
M16
G05
G00X0.7933Y0.0389
M15
G01X0.7933Y-0.1107
M16
G05
G00X1.3031Y2.1353
M15
G01X1.3031Y1.9857
M16
G05
G00X1.3031Y1.4365
M15
G01X1.3031Y1.2869
M16
G05
G00X1.3031Y0.7377
M15
G01X1.3031Y0.5881
M16
G05
G00X1.3031Y0.0389
M15
G01X1.3031Y-0.1107
M16
G05
G00X1.3031Y2.1353
M15
G01X1.4921Y2.1353
M16
G05
G00X1.3031Y1.9857
M15
G01X1.4921Y1.9857
M16
G05
G00X1.3031Y1.4365
M15
G01X1.4921Y1.4365
M16
G05
G00X1.3031Y1.2869
M15
G01X1.4921Y1.2869
M16
G05
G00X1.3031Y0.7377
M15
G01X1.4921Y0.7377
M16
G05
G00X1.3031Y0.5881
M15
G01X1.4921Y0.5881
M16
G05
G00X1.3031Y0.0389
M15
G01X1.4921Y0.0389
M16
G05
G00X1.3031Y-0.1107
M15
G01X1.4921Y-0.1107
M16
G05
G00X1.4921Y2.1353
M15
G01X1.4921Y1.9857
M16
G05
G00X1.4921Y1.4365
M15
G01X1.4921Y1.2869
M16
G05
G00X1.4921Y0.7377
M15
G01X1.4921Y0.5881
M16
G05
G00X1.4921Y0.0389
M15
G01X1.4921Y-0.1107
M16
G05
G00X2.002Y2.1353
M15
G01X2.002Y1.9857
M16
G05
G00X2.002Y1.4365
M15
G01X2.002Y1.2869
M16
G05
G00X2.002Y0.7377
M15
G01X2.002Y0.5881
M16
G05
G00X2.002Y0.0389
M15
G01X2.002Y-0.1107
M16
G05
G00X2.002Y2.1353
M15
G01X2.1909Y2.1353
M16
G05
G00X2.002Y1.9857
M15
G01X2.1909Y1.9857
M16
G05
G00X2.002Y1.4365
M15
G01X2.1909Y1.4365
M16
G05
G00X2.002Y1.2869
M15
G01X2.1909Y1.2869
M16
G05
G00X2.002Y0.7377
M15
G01X2.1909Y0.7377
M16
G05
G00X2.002Y0.5881
M15
G01X2.1909Y0.5881
M16
G05
G00X2.002Y0.0389
M15
G01X2.1909Y0.0389
M16
G05
G00X2.002Y-0.1107
M15
G01X2.1909Y-0.1107
M16
G05
G00X2.1909Y2.1353
M15
G01X2.1909Y1.9857
M16
G05
G00X2.1909Y1.4365
M15
G01X2.1909Y1.2869
M16
G05
G00X2.1909Y0.7377
M15
G01X2.1909Y0.5881
M16
G05
G00X2.1909Y0.0389
M15
G01X2.1909Y-0.1107
M16
G05
G00X2.7008Y2.1353
M15
G01X2.7008Y1.9857
M16
G05
G00X2.7008Y1.4365
M15
G01X2.7008Y1.2869
M16
G05
G00X2.7008Y0.7377
M15
G01X2.7008Y0.5881
M16
G05
G00X2.7008Y0.0389
M15
G01X2.7008Y-0.1107
M16
G05
G00X2.7008Y2.1353
M15
G01X2.8898Y2.1353
M16
G05
G00X2.7008Y1.9857
M15
G01X2.8898Y1.9857
M16
G05
G00X2.7008Y1.4365
M15
G01X2.8898Y1.4365
M16
G05
G00X2.7008Y1.2869
M15
G01X2.8898Y1.2869
M16
G05
G00X2.7008Y0.7377
M15
G01X2.8898Y0.7377
M16
G05
G00X2.7008Y0.5881
M15
G01X2.8898Y0.5881
M16
G05
G00X2.7008Y0.0389
M15
G01X2.8898Y0.0389
M16
G05
G00X2.7008Y-0.1107
M15
G01X2.8898Y-0.1107
M16
G05
G00X2.8898Y2.1353
M15
G01X2.8898Y1.9857
M16
G05
G00X2.8898Y1.4365
M15
G01X2.8898Y1.2869
M16
G05
G00X2.8898Y0.7377
M15
G01X2.8898Y0.5881
M16
G05
G00X2.8898Y0.0389
M15
G01X2.8898Y-0.1107
M16
G05
G00X3.3996Y2.1353
M15
G01X3.3996Y1.9857
M16
G05
G00X3.3996Y1.4365
M15
G01X3.3996Y1.2869
M16
G05
G00X3.3996Y0.7377
M15
G01X3.3996Y0.5881
M16
G05
G00X3.3996Y0.0389
M15
G01X3.3996Y-0.1107
M16
G05
G00X3.3996Y2.1353
M15
G01X3.5886Y2.1353
M16
G05
G00X3.3996Y1.9857
M15
G01X3.5886Y1.9857
M16
G05
G00X3.3996Y1.4365
M15
G01X3.5886Y1.4365
M16
G05
G00X3.3996Y1.2869
M15
G01X3.5886Y1.2869
M16
G05
G00X3.3996Y0.7377
M15
G01X3.5886Y0.7377
M16
G05
G00X3.3996Y0.5881
M15
G01X3.5886Y0.5881
M16
G05
G00X3.3996Y0.0389
M15
G01X3.5886Y0.0389
M16
G05
G00X3.3996Y-0.1107
M15
G01X3.5886Y-0.1107
M16
G05
G00X3.5886Y2.1353
M15
G01X3.5886Y1.9857
M16
G05
G00X3.5886Y1.4365
M15
G01X3.5886Y1.2869
M16
G05
G00X3.5886Y0.7377
M15
G01X3.5886Y0.5881
M16
G05
G00X3.5886Y0.0389
M15
G01X3.5886Y-0.1107
M16
G05
G00X4.0984Y2.1353
M15
G01X4.0984Y1.9857
M16
G05
G00X4.0984Y1.4365
M15
G01X4.0984Y1.2869
M16
G05
G00X4.0984Y0.7377
M15
G01X4.0984Y0.5881
M16
G05
G00X4.0984Y0.0389
M15
G01X4.0984Y-0.1107
M16
G05
G00X4.0984Y2.1353
M15
G01X4.2874Y2.1353
M16
G05
G00X4.0984Y1.9857
M15
G01X4.2874Y1.9857
M16
G05
G00X4.0984Y1.4365
M15
G01X4.2874Y1.4365
M16
G05
G00X4.0984Y1.2869
M15
G01X4.2874Y1.2869
M16
G05
G00X4.0984Y0.7377
M15
G01X4.2874Y0.7377
M16
G05
G00X4.0984Y0.5881
M15
G01X4.2874Y0.5881
M16
G05
G00X4.0984Y0.0389
M15
G01X4.2874Y0.0389
M16
G05
G00X4.0984Y-0.1107
M15
G01X4.2874Y-0.1107
M16
G05
G00X4.2874Y2.1353
M15
G01X4.2874Y1.9857
M16
G05
G00X4.2874Y1.4365
M15
G01X4.2874Y1.2869
M16
G05
G00X4.2874Y0.7377
M15
G01X4.2874Y0.5881
M16
G05
G00X4.2874Y0.0389
M15
G01X4.2874Y-0.1107
M16
G05
G00X4.7972Y2.1353
M15
G01X4.7972Y1.9857
M16
G05
G00X4.7972Y1.4365
M15
G01X4.7972Y1.2869
M16
G05
G00X4.7972Y0.7377
M15
G01X4.7972Y0.5881
M16
G05
G00X4.7972Y0.0389
M15
G01X4.7972Y-0.1107
M16
G05
G00X4.7972Y2.1353
M15
G01X4.9862Y2.1353
M16
G05
G00X4.7972Y1.9857
M15
G01X4.9862Y1.9857
M16
G05
G00X4.7972Y1.4365
M15
G01X4.9862Y1.4365
M16
G05
G00X4.7972Y1.2869
M15
G01X4.9862Y1.2869
M16
G05
G00X4.7972Y0.7377
M15
G01X4.9862Y0.7377
M16
G05
G00X4.7972Y0.5881
M15
G01X4.9862Y0.5881
M16
G05
G00X4.7972Y0.0389
M15
G01X4.9862Y0.0389
M16
G05
G00X4.7972Y-0.1107
M15
G01X4.9862Y-0.1107
M16
G05
G00X4.9862Y2.1353
M15
G01X4.9862Y1.9857
M16
G05
G00X4.9862Y1.4365
M15
G01X4.9862Y1.2869
M16
G05
G00X4.9862Y0.7377
M15
G01X4.9862Y0.5881
M16
G05
G00X4.9862Y0.0389
M15
G01X4.9862Y-0.1107
M16
G05
G00X5.4961Y2.1353
M15
G01X5.4961Y1.9857
M16
G05
G00X5.4961Y1.4365
M15
G01X5.4961Y1.2869
M16
G05
G00X5.4961Y0.7377
M15
G01X5.4961Y0.5881
M16
G05
G00X5.4961Y0.0389
M15
G01X5.4961Y-0.1107
M16
G05
G00X5.4961Y2.1353
M15
G01X5.685Y2.1353
M16
G05
G00X5.4961Y1.9857
M15
G01X5.685Y1.9857
M16
G05
G00X5.4961Y1.4365
M15
G01X5.685Y1.4365
M16
G05
G00X5.4961Y1.2869
M15
G01X5.685Y1.2869
M16
G05
G00X5.4961Y0.7377
M15
G01X5.685Y0.7377
M16
G05
G00X5.4961Y0.5881
M15
G01X5.685Y0.5881
M16
G05
G00X5.4961Y0.0389
M15
G01X5.685Y0.0389
M16
G05
G00X5.4961Y-0.1107
M15
G01X5.685Y-0.1107
M16
G05
G00X5.685Y2.1353
M15
G01X5.685Y1.9857
M16
G05
G00X5.685Y1.4365
M15
G01X5.685Y1.2869
M16
G05
G00X5.685Y0.7377
M15
G01X5.685Y0.5881
M16
G05
G00X5.685Y0.0389
M15
G01X5.685Y-0.1107
M16
G05
G00X6.1949Y2.1353
M15
G01X6.1949Y1.9857
M16
G05
G00X6.1949Y1.4365
M15
G01X6.1949Y1.2869
M16
G05
G00X6.1949Y0.7377
M15
G01X6.1949Y0.5881
M16
G05
G00X6.1949Y0.0389
M15
G01X6.1949Y-0.1107
M16
G05
G00X6.1949Y2.1353
M15
G01X6.3839Y2.1353
M16
G05
G00X6.1949Y1.9857
M15
G01X6.3839Y1.9857
M16
G05
G00X6.1949Y1.4365
M15
G01X6.3839Y1.4365
M16
G05
G00X6.1949Y1.2869
M15
G01X6.3839Y1.2869
M16
G05
G00X6.1949Y0.7377
M15
G01X6.3839Y0.7377
M16
G05
G00X6.1949Y0.5881
M15
G01X6.3839Y0.5881
M16
G05
G00X6.1949Y0.0389
M15
G01X6.3839Y0.0389
M16
G05
G00X6.1949Y-0.1107
M15
G01X6.3839Y-0.1107
M16
G05
G00X6.3839Y2.1353
M15
G01X6.3839Y1.9857
M16
G05
G00X6.3839Y1.4365
M15
G01X6.3839Y1.2869
M16
G05
G00X6.3839Y0.7377
M15
G01X6.3839Y0.5881
M16
G05
G00X6.3839Y0.0389
M15
G01X6.3839Y-0.1107
M16
G05
G00X6.8937Y2.1353
M15
G01X6.8937Y1.9857
M16
G05
G00X6.8937Y1.4365
M15
G01X6.8937Y1.2869
M16
G05
G00X6.8937Y0.7377
M15
G01X6.8937Y0.5881
M16
G05
G00X6.8937Y0.0389
M15
G01X6.8937Y-0.1107
M16
G05
G00X6.8937Y2.1353
M15
G01X7.0827Y2.1353
M16
G05
G00X6.8937Y1.9857
M15
G01X7.0827Y1.9857
M16
G05
G00X6.8937Y1.4365
M15
G01X7.0827Y1.4365
M16
G05
G00X6.8937Y1.2869
M15
G01X7.0827Y1.2869
M16
G05
G00X6.8937Y0.7377
M15
G01X7.0827Y0.7377
M16
G05
G00X6.8937Y0.5881
M15
G01X7.0827Y0.5881
M16
G05
G00X6.8937Y0.0389
M15
G01X7.0827Y0.0389
M16
G05
G00X6.8937Y-0.1107
M15
G01X7.0827Y-0.1107
M16
G05
G00X7.0827Y2.1353
M15
G01X7.0827Y1.9857
M16
G05
G00X7.0827Y1.4365
M15
G01X7.0827Y1.2869
M16
G05
G00X7.0827Y0.7377
M15
G01X7.0827Y0.5881
M16
G05
G00X7.0827Y0.0389
M15
G01X7.0827Y-0.1107
M16
G05
T4
G00X0.6378Y2.1019
M15
G01X0.6378Y2.0192
M16
G05
G00X0.6378Y1.4031
M15
G01X0.6378Y1.3204
M16
G05
G00X0.6378Y0.7042
M15
G01X0.6378Y0.6216
M16
G05
G00X0.6378Y0.0054
M15
G01X0.6378Y-0.0773
M16
G05
G00X0.7598Y2.1019
M15
G01X0.7598Y2.0192
M16
G05
G00X0.7598Y1.4031
M15
G01X0.7598Y1.3204
M16
G05
G00X0.7598Y0.7042
M15
G01X0.7598Y0.6216
M16
G05
G00X0.7598Y0.0054
M15
G01X0.7598Y-0.0773
M16
G05
G00X1.3366Y2.1019
M15
G01X1.3366Y2.0192
M16
G05
G00X1.3366Y1.4031
M15
G01X1.3366Y1.3204
M16
G05
G00X1.3366Y0.7042
M15
G01X1.3366Y0.6216
M16
G05
G00X1.3366Y0.0054
M15
G01X1.3366Y-0.0773
M16
G05
G00X1.4587Y2.1019
M15
G01X1.4587Y2.0192
M16
G05
G00X1.4587Y1.4031
M15
G01X1.4587Y1.3204
M16
G05
G00X1.4587Y0.7042
M15
G01X1.4587Y0.6216
M16
G05
G00X1.4587Y0.0054
M15
G01X1.4587Y-0.0773
M16
G05
G00X2.0354Y2.1019
M15
G01X2.0354Y2.0192
M16
G05
G00X2.0354Y1.4031
M15
G01X2.0354Y1.3204
M16
G05
G00X2.0354Y0.7042
M15
G01X2.0354Y0.6216
M16
G05
G00X2.0354Y0.0054
M15
G01X2.0354Y-0.0773
M16
G05
G00X2.1575Y2.1019
M15
G01X2.1575Y2.0192
M16
G05
G00X2.1575Y1.4031
M15
G01X2.1575Y1.3204
M16
G05
G00X2.1575Y0.7042
M15
G01X2.1575Y0.6216
M16
G05
G00X2.1575Y0.0054
M15
G01X2.1575Y-0.0773
M16
G05
G00X2.7343Y2.1019
M15
G01X2.7343Y2.0192
M16
G05
G00X2.7343Y1.4031
M15
G01X2.7343Y1.3204
M16
G05
G00X2.7343Y0.7042
M15
G01X2.7343Y0.6216
M16
G05
G00X2.7343Y0.0054
M15
G01X2.7343Y-0.0773
M16
G05
G00X2.8563Y2.1019
M15
G01X2.8563Y2.0192
M16
G05
G00X2.8563Y1.4031
M15
G01X2.8563Y1.3204
M16
G05
G00X2.8563Y0.7042
M15
G01X2.8563Y0.6216
M16
G05
G00X2.8563Y0.0054
M15
G01X2.8563Y-0.0773
M16
G05
G00X3.4331Y2.1019
M15
G01X3.4331Y2.0192
M16
G05
G00X3.4331Y1.4031
M15
G01X3.4331Y1.3204
M16
G05
G00X3.4331Y0.7042
M15
G01X3.4331Y0.6216
M16
G05
G00X3.4331Y0.0054
M15
G01X3.4331Y-0.0773
M16
G05
G00X3.5551Y2.1019
M15
G01X3.5551Y2.0192
M16
G05
G00X3.5551Y1.4031
M15
G01X3.5551Y1.3204
M16
G05
G00X3.5551Y0.7042
M15
G01X3.5551Y0.6216
M16
G05
G00X3.5551Y0.0054
M15
G01X3.5551Y-0.0773
M16
G05
G00X4.1319Y2.1019
M15
G01X4.1319Y2.0192
M16
G05
G00X4.1319Y1.4031
M15
G01X4.1319Y1.3204
M16
G05
G00X4.1319Y0.7042
M15
G01X4.1319Y0.6216
M16
G05
G00X4.1319Y0.0054
M15
G01X4.1319Y-0.0773
M16
G05
G00X4.2539Y2.1019
M15
G01X4.2539Y2.0192
M16
G05
G00X4.2539Y1.4031
M15
G01X4.2539Y1.3204
M16
G05
G00X4.2539Y0.7042
M15
G01X4.2539Y0.6216
M16
G05
G00X4.2539Y0.0054
M15
G01X4.2539Y-0.0773
M16
G05
G00X4.8307Y2.1019
M15
G01X4.8307Y2.0192
M16
G05
G00X4.8307Y1.4031
M15
G01X4.8307Y1.3204
M16
G05
G00X4.8307Y0.7042
M15
G01X4.8307Y0.6216
M16
G05
G00X4.8307Y0.0054
M15
G01X4.8307Y-0.0773
M16
G05
G00X4.9528Y2.1019
M15
G01X4.9528Y2.0192
M16
G05
G00X4.9528Y1.4031
M15
G01X4.9528Y1.3204
M16
G05
G00X4.9528Y0.7042
M15
G01X4.9528Y0.6216
M16
G05
G00X4.9528Y0.0054
M15
G01X4.9528Y-0.0773
M16
G05
G00X5.5295Y2.1019
M15
G01X5.5295Y2.0192
M16
G05
G00X5.5295Y1.4031
M15
G01X5.5295Y1.3204
M16
G05
G00X5.5295Y0.7042
M15
G01X5.5295Y0.6216
M16
G05
G00X5.5295Y0.0054
M15
G01X5.5295Y-0.0773
M16
G05
G00X5.6516Y2.1019
M15
G01X5.6516Y2.0192
M16
G05
G00X5.6516Y1.4031
M15
G01X5.6516Y1.3204
M16
G05
G00X5.6516Y0.7042
M15
G01X5.6516Y0.6216
M16
G05
G00X5.6516Y0.0054
M15
G01X5.6516Y-0.0773
M16
G05
G00X6.2283Y2.1019
M15
G01X6.2283Y2.0192
M16
G05
G00X6.2283Y1.4031
M15
G01X6.2283Y1.3204
M16
G05
G00X6.2283Y0.7042
M15
G01X6.2283Y0.6216
M16
G05
G00X6.2283Y0.0054
M15
G01X6.2283Y-0.0773
M16
G05
G00X6.3504Y2.1019
M15
G01X6.3504Y2.0192
M16
G05
G00X6.3504Y1.4031
M15
G01X6.3504Y1.3204
M16
G05
G00X6.3504Y0.7042
M15
G01X6.3504Y0.6216
M16
G05
G00X6.3504Y0.0054
M15
G01X6.3504Y-0.0773
M16
G05
G00X6.9272Y2.1019
M15
G01X6.9272Y2.0192
M16
G05
G00X6.9272Y1.4031
M15
G01X6.9272Y1.3204
M16
G05
G00X6.9272Y0.7042
M15
G01X6.9272Y0.6216
M16
G05
G00X6.9272Y0.0054
M15
G01X6.9272Y-0.0773
M16
G05
G00X7.0492Y2.1019
M15
G01X7.0492Y2.0192
M16
G05
G00X7.0492Y1.4031
M15
G01X7.0492Y1.3204
M16
G05
G00X7.0492Y0.7042
M15
G01X7.0492Y0.6216
M16
G05
G00X7.0492Y0.0054
M15
G01X7.0492Y-0.0773
M16
G05
T5
G00X0.6791Y2.0605
M15
G01X0.7185Y2.0605
M16
G05
G00X0.6791Y1.3617
M15
G01X0.7185Y1.3617
M16
G05
G00X0.6791Y0.6629
M15
G01X0.7185Y0.6629
M16
G05
G00X0.6791Y-0.0359
M15
G01X0.7185Y-0.0359
M16
G05
G00X1.378Y2.0605
M15
G01X1.4173Y2.0605
M16
G05
G00X1.378Y1.3617
M15
G01X1.4173Y1.3617
M16
G05
G00X1.378Y0.6629
M15
G01X1.4173Y0.6629
M16
G05
G00X1.378Y-0.0359
M15
G01X1.4173Y-0.0359
M16
G05
G00X2.0768Y2.0605
M15
G01X2.1161Y2.0605
M16
G05
G00X2.0768Y1.3617
M15
G01X2.1161Y1.3617
M16
G05
G00X2.0768Y0.6629
M15
G01X2.1161Y0.6629
M16
G05
G00X2.0768Y-0.0359
M15
G01X2.1161Y-0.0359
M16
G05
G00X2.7756Y2.0605
M15
G01X2.815Y2.0605
M16
G05
G00X2.7756Y1.3617
M15
G01X2.815Y1.3617
M16
G05
G00X2.7756Y0.6629
M15
G01X2.815Y0.6629
M16
G05
G00X2.7756Y-0.0359
M15
G01X2.815Y-0.0359
M16
G05
G00X3.4744Y2.0605
M15
G01X3.5138Y2.0605
M16
G05
G00X3.4744Y1.3617
M15
G01X3.5138Y1.3617
M16
G05
G00X3.4744Y0.6629
M15
G01X3.5138Y0.6629
M16
G05
G00X3.4744Y-0.0359
M15
G01X3.5138Y-0.0359
M16
G05
G00X4.1732Y2.0605
M15
G01X4.2126Y2.0605
M16
G05
G00X4.1732Y1.3617
M15
G01X4.2126Y1.3617
M16
G05
G00X4.1732Y0.6629
M15
G01X4.2126Y0.6629
M16
G05
G00X4.1732Y-0.0359
M15
G01X4.2126Y-0.0359
M16
G05
G00X4.872Y2.0605
M15
G01X4.9114Y2.0605
M16
G05
G00X4.872Y1.3617
M15
G01X4.9114Y1.3617
M16
G05
G00X4.872Y0.6629
M15
G01X4.9114Y0.6629
M16
G05
G00X4.872Y-0.0359
M15
G01X4.9114Y-0.0359
M16
G05
G00X5.5709Y2.0605
M15
G01X5.6102Y2.0605
M16
G05
G00X5.5709Y1.3617
M15
G01X5.6102Y1.3617
M16
G05
G00X5.5709Y0.6629
M15
G01X5.6102Y0.6629
M16
G05
G00X5.5709Y-0.0359
M15
G01X5.6102Y-0.0359
M16
G05
G00X6.2697Y2.0605
M15
G01X6.3091Y2.0605
M16
G05
G00X6.2697Y1.3617
M15
G01X6.3091Y1.3617
M16
G05
G00X6.2697Y0.6629
M15
G01X6.3091Y0.6629
M16
G05
G00X6.2697Y-0.0359
M15
G01X6.3091Y-0.0359
M16
G05
G00X6.9685Y2.0605
M15
G01X7.0079Y2.0605
M16
G05
G00X6.9685Y1.3617
M15
G01X7.0079Y1.3617
M16
G05
G00X6.9685Y0.6629
M15
G01X7.0079Y0.6629
M16
G05
G00X6.9685Y-0.0359
M15
G01X7.0079Y-0.0359
M16
G05
T0
M30
