%TF.GenerationSoftware,KiCad,Pcbnew,(6.0.4)*%
%TF.CreationDate,2022-11-13T15:40:53-05:00*%
%TF.ProjectId,crepe,63726570-652e-46b6-9963-61645f706362,v1.0.0*%
%TF.SameCoordinates,Original*%
%TF.FileFunction,Paste,Top*%
%TF.FilePolarity,Positive*%
%FSLAX46Y46*%
G04 Gerber Fmt 4.6, Leading zero omitted, Abs format (unit mm)*
G04 Created by KiCad (PCBNEW (6.0.4)) date 2022-11-13 15:40:53*
%MOMM*%
%LPD*%
G01*
G04 APERTURE LIST*
%ADD10R,1.200000X1.200000*%
%ADD11R,0.900000X1.250000*%
%ADD12R,0.900000X0.900000*%
%ADD13R,1.000000X2.000000*%
G04 APERTURE END LIST*
D10*
%TO.C,D1*%
X19400000Y-4750000D03*
X16100000Y-4750000D03*
%TD*%
%TO.C,D2*%
X19400000Y13000000D03*
X16100000Y13000000D03*
%TD*%
%TO.C,D3*%
X19400000Y30750000D03*
X16100000Y30750000D03*
%TD*%
%TO.C,D4*%
X19400000Y48500000D03*
X16100000Y48500000D03*
%TD*%
%TO.C,D5*%
X37150000Y-4750000D03*
X33850000Y-4750000D03*
%TD*%
%TO.C,D6*%
X37150000Y13000000D03*
X33850000Y13000000D03*
%TD*%
%TO.C,D7*%
X37150000Y30750000D03*
X33850000Y30750000D03*
%TD*%
%TO.C,D8*%
X37150000Y48500000D03*
X33850000Y48500000D03*
%TD*%
%TO.C,D9*%
X54900000Y-4750000D03*
X51600000Y-4750000D03*
%TD*%
%TO.C,D10*%
X54900000Y13000000D03*
X51600000Y13000000D03*
%TD*%
%TO.C,D11*%
X54900000Y30750000D03*
X51600000Y30750000D03*
%TD*%
%TO.C,D12*%
X54900000Y48500000D03*
X51600000Y48500000D03*
%TD*%
%TO.C,D13*%
X72650000Y-4750000D03*
X69350000Y-4750000D03*
%TD*%
%TO.C,D14*%
X72650000Y13000000D03*
X69350000Y13000000D03*
%TD*%
%TO.C,D15*%
X72650000Y30750000D03*
X69350000Y30750000D03*
%TD*%
%TO.C,D16*%
X72650000Y48500000D03*
X69350000Y48500000D03*
%TD*%
%TO.C,D17*%
X90400000Y-4750000D03*
X87100000Y-4750000D03*
%TD*%
%TO.C,D18*%
X90400000Y13000000D03*
X87100000Y13000000D03*
%TD*%
%TO.C,D19*%
X90400000Y30750000D03*
X87100000Y30750000D03*
%TD*%
%TO.C,D20*%
X90400000Y48500000D03*
X87100000Y48500000D03*
%TD*%
D11*
%TO.C,T1*%
X-2250000Y-4300000D03*
X750000Y-4300000D03*
X2250000Y-4300000D03*
D12*
X-3700000Y-7475000D03*
X-3700000Y-5275000D03*
X3700000Y-5275000D03*
X3700000Y-7475000D03*
%TD*%
D13*
%TO.C,PAD1*%
X-1000000Y26750000D03*
%TD*%
%TO.C,PAD2*%
X1000000Y26750000D03*
%TD*%
D10*
%TO.C,D21*%
X179150000Y-4750000D03*
X175850000Y-4750000D03*
%TD*%
%TO.C,D22*%
X179150000Y13000000D03*
X175850000Y13000000D03*
%TD*%
%TO.C,D23*%
X179150000Y30750000D03*
X175850000Y30750000D03*
%TD*%
%TO.C,D24*%
X179150000Y48500000D03*
X175850000Y48500000D03*
%TD*%
%TO.C,D25*%
X161400000Y-4750000D03*
X158100000Y-4750000D03*
%TD*%
%TO.C,D26*%
X161400000Y13000000D03*
X158100000Y13000000D03*
%TD*%
%TO.C,D27*%
X161400000Y30750000D03*
X158100000Y30750000D03*
%TD*%
%TO.C,D28*%
X161400000Y48500000D03*
X158100000Y48500000D03*
%TD*%
%TO.C,D29*%
X143650000Y-4750000D03*
X140350000Y-4750000D03*
%TD*%
%TO.C,D30*%
X143650000Y13000000D03*
X140350000Y13000000D03*
%TD*%
%TO.C,D31*%
X143650000Y30750000D03*
X140350000Y30750000D03*
%TD*%
%TO.C,D32*%
X143650000Y48500000D03*
X140350000Y48500000D03*
%TD*%
%TO.C,D33*%
X125900000Y-4750000D03*
X122600000Y-4750000D03*
%TD*%
%TO.C,D34*%
X125900000Y13000000D03*
X122600000Y13000000D03*
%TD*%
%TO.C,D35*%
X125900000Y30750000D03*
X122600000Y30750000D03*
%TD*%
%TO.C,D36*%
X125900000Y48500000D03*
X122600000Y48500000D03*
%TD*%
%TO.C,D37*%
X108150000Y-4750000D03*
X104850000Y-4750000D03*
%TD*%
%TO.C,D38*%
X108150000Y13000000D03*
X104850000Y13000000D03*
%TD*%
%TO.C,D39*%
X108150000Y30750000D03*
X104850000Y30750000D03*
%TD*%
%TO.C,D40*%
X108150000Y48500000D03*
X104850000Y48500000D03*
%TD*%
M02*
