%TF.GenerationSoftware,KiCad,Pcbnew,(6.0.4)*%
%TF.CreationDate,2022-11-13T15:40:53-05:00*%
%TF.ProjectId,crepe,63726570-652e-46b6-9963-61645f706362,v1.0.0*%
%TF.SameCoordinates,Original*%
%TF.FileFunction,Legend,Top*%
%TF.FilePolarity,Positive*%
%FSLAX46Y46*%
G04 Gerber Fmt 4.6, Leading zero omitted, Abs format (unit mm)*
G04 Created by KiCad (PCBNEW (6.0.4)) date 2022-11-13 15:40:53*
%MOMM*%
%LPD*%
G01*
G04 APERTURE LIST*
%ADD10C,0.150000*%
%ADD11C,0.100000*%
%ADD12R,1.752600X1.752600*%
%ADD13C,1.752600*%
G04 APERTURE END LIST*
D10*
%TO.C,S1*%
%TO.C,S2*%
%TO.C,S3*%
%TO.C,S4*%
%TO.C,S5*%
%TO.C,S6*%
%TO.C,S7*%
%TO.C,S8*%
%TO.C,S9*%
%TO.C,S10*%
%TO.C,S11*%
%TO.C,S12*%
%TO.C,S13*%
%TO.C,S14*%
%TO.C,S15*%
%TO.C,S16*%
%TO.C,S17*%
%TO.C,S18*%
%TO.C,S19*%
%TO.C,S20*%
%TO.C,S21*%
%TO.C,S22*%
%TO.C,S23*%
%TO.C,S24*%
%TO.C,S25*%
%TO.C,S26*%
%TO.C,S27*%
%TO.C,S28*%
%TO.C,S29*%
%TO.C,S30*%
%TO.C,S31*%
%TO.C,S32*%
%TO.C,S33*%
%TO.C,S34*%
%TO.C,S35*%
%TO.C,S36*%
%TO.C,S37*%
%TO.C,S38*%
%TO.C,S39*%
%TO.C,S40*%
%TO.C,*%
%TO.C,PAD1*%
X-942857Y24445238D02*
X-942857Y25054761D01*
X-638095Y24750000D02*
X-1247619Y24750000D01*
%TO.C,*%
%TO.C,PAD2*%
X1057142Y24445238D02*
X1057142Y25054761D01*
%TO.C,*%
%TO.C,S1*%
X24149992Y-7012336D02*
X25149992Y-7012336D01*
X25150000Y6987500D02*
X25150000Y5987500D01*
X11350000Y-7012500D02*
X10350000Y-7012500D01*
X25149992Y-7012336D02*
X25149992Y-6012336D01*
X10350000Y6987500D02*
X11350000Y6987500D01*
X10349992Y-6012336D02*
X10349992Y-7012336D01*
X25149992Y6987664D02*
X24149992Y6987664D01*
X10350000Y5987500D02*
X10350000Y6987500D01*
%TO.C,S2*%
X24149992Y10737664D02*
X25149992Y10737664D01*
X25150000Y24737500D02*
X25150000Y23737500D01*
X11350000Y10737500D02*
X10350000Y10737500D01*
X25149992Y10737664D02*
X25149992Y11737664D01*
X10350000Y24737500D02*
X11350000Y24737500D01*
X10349992Y11737664D02*
X10349992Y10737664D01*
X25149992Y24737664D02*
X24149992Y24737664D01*
X10350000Y23737500D02*
X10350000Y24737500D01*
%TO.C,S3*%
X24149992Y28487664D02*
X25149992Y28487664D01*
X25150000Y42487500D02*
X25150000Y41487500D01*
X11350000Y28487500D02*
X10350000Y28487500D01*
X25149992Y28487664D02*
X25149992Y29487664D01*
X10350000Y42487500D02*
X11350000Y42487500D01*
X10349992Y29487664D02*
X10349992Y28487664D01*
X25149992Y42487664D02*
X24149992Y42487664D01*
X10350000Y41487500D02*
X10350000Y42487500D01*
%TO.C,S4*%
X24149992Y46237664D02*
X25149992Y46237664D01*
X25150000Y60237500D02*
X25150000Y59237500D01*
X11350000Y46237500D02*
X10350000Y46237500D01*
X25149992Y46237664D02*
X25149992Y47237664D01*
X10350000Y60237500D02*
X11350000Y60237500D01*
X10349992Y47237664D02*
X10349992Y46237664D01*
X25149992Y60237664D02*
X24149992Y60237664D01*
X10350000Y59237500D02*
X10350000Y60237500D01*
%TO.C,S5*%
X41899992Y-7012336D02*
X42899992Y-7012336D01*
X42900000Y6987500D02*
X42900000Y5987500D01*
X29100000Y-7012500D02*
X28100000Y-7012500D01*
X42899992Y-7012336D02*
X42899992Y-6012336D01*
X28100000Y6987500D02*
X29100000Y6987500D01*
X28099992Y-6012336D02*
X28099992Y-7012336D01*
X42899992Y6987664D02*
X41899992Y6987664D01*
X28100000Y5987500D02*
X28100000Y6987500D01*
%TO.C,S6*%
X41899992Y10737664D02*
X42899992Y10737664D01*
X42900000Y24737500D02*
X42900000Y23737500D01*
X29100000Y10737500D02*
X28100000Y10737500D01*
X42899992Y10737664D02*
X42899992Y11737664D01*
X28100000Y24737500D02*
X29100000Y24737500D01*
X28099992Y11737664D02*
X28099992Y10737664D01*
X42899992Y24737664D02*
X41899992Y24737664D01*
X28100000Y23737500D02*
X28100000Y24737500D01*
%TO.C,S7*%
X41899992Y28487664D02*
X42899992Y28487664D01*
X42900000Y42487500D02*
X42900000Y41487500D01*
X29100000Y28487500D02*
X28100000Y28487500D01*
X42899992Y28487664D02*
X42899992Y29487664D01*
X28100000Y42487500D02*
X29100000Y42487500D01*
X28099992Y29487664D02*
X28099992Y28487664D01*
X42899992Y42487664D02*
X41899992Y42487664D01*
X28100000Y41487500D02*
X28100000Y42487500D01*
%TO.C,S8*%
X41899992Y46237664D02*
X42899992Y46237664D01*
X42900000Y60237500D02*
X42900000Y59237500D01*
X29100000Y46237500D02*
X28100000Y46237500D01*
X42899992Y46237664D02*
X42899992Y47237664D01*
X28100000Y60237500D02*
X29100000Y60237500D01*
X28099992Y47237664D02*
X28099992Y46237664D01*
X42899992Y60237664D02*
X41899992Y60237664D01*
X28100000Y59237500D02*
X28100000Y60237500D01*
%TO.C,S9*%
X59649992Y-7012336D02*
X60649992Y-7012336D01*
X60650000Y6987500D02*
X60650000Y5987500D01*
X46850000Y-7012500D02*
X45850000Y-7012500D01*
X60649992Y-7012336D02*
X60649992Y-6012336D01*
X45850000Y6987500D02*
X46850000Y6987500D01*
X45849992Y-6012336D02*
X45849992Y-7012336D01*
X60649992Y6987664D02*
X59649992Y6987664D01*
X45850000Y5987500D02*
X45850000Y6987500D01*
%TO.C,S10*%
X59649992Y10737664D02*
X60649992Y10737664D01*
X60650000Y24737500D02*
X60650000Y23737500D01*
X46850000Y10737500D02*
X45850000Y10737500D01*
X60649992Y10737664D02*
X60649992Y11737664D01*
X45850000Y24737500D02*
X46850000Y24737500D01*
X45849992Y11737664D02*
X45849992Y10737664D01*
X60649992Y24737664D02*
X59649992Y24737664D01*
X45850000Y23737500D02*
X45850000Y24737500D01*
%TO.C,S11*%
X59649992Y28487664D02*
X60649992Y28487664D01*
X60650000Y42487500D02*
X60650000Y41487500D01*
X46850000Y28487500D02*
X45850000Y28487500D01*
X60649992Y28487664D02*
X60649992Y29487664D01*
X45850000Y42487500D02*
X46850000Y42487500D01*
X45849992Y29487664D02*
X45849992Y28487664D01*
X60649992Y42487664D02*
X59649992Y42487664D01*
X45850000Y41487500D02*
X45850000Y42487500D01*
%TO.C,S12*%
X59649992Y46237664D02*
X60649992Y46237664D01*
X60650000Y60237500D02*
X60650000Y59237500D01*
X46850000Y46237500D02*
X45850000Y46237500D01*
X60649992Y46237664D02*
X60649992Y47237664D01*
X45850000Y60237500D02*
X46850000Y60237500D01*
X45849992Y47237664D02*
X45849992Y46237664D01*
X60649992Y60237664D02*
X59649992Y60237664D01*
X45850000Y59237500D02*
X45850000Y60237500D01*
%TO.C,S13*%
X77399992Y-7012336D02*
X78399992Y-7012336D01*
X78400000Y6987500D02*
X78400000Y5987500D01*
X64600000Y-7012500D02*
X63600000Y-7012500D01*
X78399992Y-7012336D02*
X78399992Y-6012336D01*
X63600000Y6987500D02*
X64600000Y6987500D01*
X63599992Y-6012336D02*
X63599992Y-7012336D01*
X78399992Y6987664D02*
X77399992Y6987664D01*
X63600000Y5987500D02*
X63600000Y6987500D01*
%TO.C,S14*%
X77399992Y10737664D02*
X78399992Y10737664D01*
X78400000Y24737500D02*
X78400000Y23737500D01*
X64600000Y10737500D02*
X63600000Y10737500D01*
X78399992Y10737664D02*
X78399992Y11737664D01*
X63600000Y24737500D02*
X64600000Y24737500D01*
X63599992Y11737664D02*
X63599992Y10737664D01*
X78399992Y24737664D02*
X77399992Y24737664D01*
X63600000Y23737500D02*
X63600000Y24737500D01*
%TO.C,S15*%
X77399992Y28487664D02*
X78399992Y28487664D01*
X78400000Y42487500D02*
X78400000Y41487500D01*
X64600000Y28487500D02*
X63600000Y28487500D01*
X78399992Y28487664D02*
X78399992Y29487664D01*
X63600000Y42487500D02*
X64600000Y42487500D01*
X63599992Y29487664D02*
X63599992Y28487664D01*
X78399992Y42487664D02*
X77399992Y42487664D01*
X63600000Y41487500D02*
X63600000Y42487500D01*
%TO.C,S16*%
X77399992Y46237664D02*
X78399992Y46237664D01*
X78400000Y60237500D02*
X78400000Y59237500D01*
X64600000Y46237500D02*
X63600000Y46237500D01*
X78399992Y46237664D02*
X78399992Y47237664D01*
X63600000Y60237500D02*
X64600000Y60237500D01*
X63599992Y47237664D02*
X63599992Y46237664D01*
X78399992Y60237664D02*
X77399992Y60237664D01*
X63600000Y59237500D02*
X63600000Y60237500D01*
%TO.C,S17*%
X95149992Y-7012336D02*
X96149992Y-7012336D01*
X96150000Y6987500D02*
X96150000Y5987500D01*
X82350000Y-7012500D02*
X81350000Y-7012500D01*
X96149992Y-7012336D02*
X96149992Y-6012336D01*
X81350000Y6987500D02*
X82350000Y6987500D01*
X81349992Y-6012336D02*
X81349992Y-7012336D01*
X96149992Y6987664D02*
X95149992Y6987664D01*
X81350000Y5987500D02*
X81350000Y6987500D01*
%TO.C,S18*%
X95149992Y10737664D02*
X96149992Y10737664D01*
X96150000Y24737500D02*
X96150000Y23737500D01*
X82350000Y10737500D02*
X81350000Y10737500D01*
X96149992Y10737664D02*
X96149992Y11737664D01*
X81350000Y24737500D02*
X82350000Y24737500D01*
X81349992Y11737664D02*
X81349992Y10737664D01*
X96149992Y24737664D02*
X95149992Y24737664D01*
X81350000Y23737500D02*
X81350000Y24737500D01*
%TO.C,S19*%
X95149992Y28487664D02*
X96149992Y28487664D01*
X96150000Y42487500D02*
X96150000Y41487500D01*
X82350000Y28487500D02*
X81350000Y28487500D01*
X96149992Y28487664D02*
X96149992Y29487664D01*
X81350000Y42487500D02*
X82350000Y42487500D01*
X81349992Y29487664D02*
X81349992Y28487664D01*
X96149992Y42487664D02*
X95149992Y42487664D01*
X81350000Y41487500D02*
X81350000Y42487500D01*
%TO.C,S20*%
X95149992Y46237664D02*
X96149992Y46237664D01*
X96150000Y60237500D02*
X96150000Y59237500D01*
X82350000Y46237500D02*
X81350000Y46237500D01*
X96149992Y46237664D02*
X96149992Y47237664D01*
X81350000Y60237500D02*
X82350000Y60237500D01*
X81349992Y47237664D02*
X81349992Y46237664D01*
X96149992Y60237664D02*
X95149992Y60237664D01*
X81350000Y59237500D02*
X81350000Y60237500D01*
%TO.C,S21*%
X183899992Y-7012336D02*
X184899992Y-7012336D01*
X184900000Y6987500D02*
X184900000Y5987500D01*
X171100000Y-7012500D02*
X170100000Y-7012500D01*
X184899992Y-7012336D02*
X184899992Y-6012336D01*
X170100000Y6987500D02*
X171100000Y6987500D01*
X170099992Y-6012336D02*
X170099992Y-7012336D01*
X184899992Y6987664D02*
X183899992Y6987664D01*
X170100000Y5987500D02*
X170100000Y6987500D01*
%TO.C,S22*%
X183899992Y10737664D02*
X184899992Y10737664D01*
X184900000Y24737500D02*
X184900000Y23737500D01*
X171100000Y10737500D02*
X170100000Y10737500D01*
X184899992Y10737664D02*
X184899992Y11737664D01*
X170100000Y24737500D02*
X171100000Y24737500D01*
X170099992Y11737664D02*
X170099992Y10737664D01*
X184899992Y24737664D02*
X183899992Y24737664D01*
X170100000Y23737500D02*
X170100000Y24737500D01*
%TO.C,S23*%
X183899992Y28487664D02*
X184899992Y28487664D01*
X184900000Y42487500D02*
X184900000Y41487500D01*
X171100000Y28487500D02*
X170100000Y28487500D01*
X184899992Y28487664D02*
X184899992Y29487664D01*
X170100000Y42487500D02*
X171100000Y42487500D01*
X170099992Y29487664D02*
X170099992Y28487664D01*
X184899992Y42487664D02*
X183899992Y42487664D01*
X170100000Y41487500D02*
X170100000Y42487500D01*
%TO.C,S24*%
X183899992Y46237664D02*
X184899992Y46237664D01*
X184900000Y60237500D02*
X184900000Y59237500D01*
X171100000Y46237500D02*
X170100000Y46237500D01*
X184899992Y46237664D02*
X184899992Y47237664D01*
X170100000Y60237500D02*
X171100000Y60237500D01*
X170099992Y47237664D02*
X170099992Y46237664D01*
X184899992Y60237664D02*
X183899992Y60237664D01*
X170100000Y59237500D02*
X170100000Y60237500D01*
%TO.C,S25*%
X166149992Y-7012336D02*
X167149992Y-7012336D01*
X167150000Y6987500D02*
X167150000Y5987500D01*
X153350000Y-7012500D02*
X152350000Y-7012500D01*
X167149992Y-7012336D02*
X167149992Y-6012336D01*
X152350000Y6987500D02*
X153350000Y6987500D01*
X152349992Y-6012336D02*
X152349992Y-7012336D01*
X167149992Y6987664D02*
X166149992Y6987664D01*
X152350000Y5987500D02*
X152350000Y6987500D01*
%TO.C,S26*%
X166149992Y10737664D02*
X167149992Y10737664D01*
X167150000Y24737500D02*
X167150000Y23737500D01*
X153350000Y10737500D02*
X152350000Y10737500D01*
X167149992Y10737664D02*
X167149992Y11737664D01*
X152350000Y24737500D02*
X153350000Y24737500D01*
X152349992Y11737664D02*
X152349992Y10737664D01*
X167149992Y24737664D02*
X166149992Y24737664D01*
X152350000Y23737500D02*
X152350000Y24737500D01*
%TO.C,S27*%
X166149992Y28487664D02*
X167149992Y28487664D01*
X167150000Y42487500D02*
X167150000Y41487500D01*
X153350000Y28487500D02*
X152350000Y28487500D01*
X167149992Y28487664D02*
X167149992Y29487664D01*
X152350000Y42487500D02*
X153350000Y42487500D01*
X152349992Y29487664D02*
X152349992Y28487664D01*
X167149992Y42487664D02*
X166149992Y42487664D01*
X152350000Y41487500D02*
X152350000Y42487500D01*
%TO.C,S28*%
X166149992Y46237664D02*
X167149992Y46237664D01*
X167150000Y60237500D02*
X167150000Y59237500D01*
X153350000Y46237500D02*
X152350000Y46237500D01*
X167149992Y46237664D02*
X167149992Y47237664D01*
X152350000Y60237500D02*
X153350000Y60237500D01*
X152349992Y47237664D02*
X152349992Y46237664D01*
X167149992Y60237664D02*
X166149992Y60237664D01*
X152350000Y59237500D02*
X152350000Y60237500D01*
%TO.C,S29*%
X148399992Y-7012336D02*
X149399992Y-7012336D01*
X149400000Y6987500D02*
X149400000Y5987500D01*
X135600000Y-7012500D02*
X134600000Y-7012500D01*
X149399992Y-7012336D02*
X149399992Y-6012336D01*
X134600000Y6987500D02*
X135600000Y6987500D01*
X134599992Y-6012336D02*
X134599992Y-7012336D01*
X149399992Y6987664D02*
X148399992Y6987664D01*
X134600000Y5987500D02*
X134600000Y6987500D01*
%TO.C,S30*%
X148399992Y10737664D02*
X149399992Y10737664D01*
X149400000Y24737500D02*
X149400000Y23737500D01*
X135600000Y10737500D02*
X134600000Y10737500D01*
X149399992Y10737664D02*
X149399992Y11737664D01*
X134600000Y24737500D02*
X135600000Y24737500D01*
X134599992Y11737664D02*
X134599992Y10737664D01*
X149399992Y24737664D02*
X148399992Y24737664D01*
X134600000Y23737500D02*
X134600000Y24737500D01*
%TO.C,S31*%
X148399992Y28487664D02*
X149399992Y28487664D01*
X149400000Y42487500D02*
X149400000Y41487500D01*
X135600000Y28487500D02*
X134600000Y28487500D01*
X149399992Y28487664D02*
X149399992Y29487664D01*
X134600000Y42487500D02*
X135600000Y42487500D01*
X134599992Y29487664D02*
X134599992Y28487664D01*
X149399992Y42487664D02*
X148399992Y42487664D01*
X134600000Y41487500D02*
X134600000Y42487500D01*
%TO.C,S32*%
X148399992Y46237664D02*
X149399992Y46237664D01*
X149400000Y60237500D02*
X149400000Y59237500D01*
X135600000Y46237500D02*
X134600000Y46237500D01*
X149399992Y46237664D02*
X149399992Y47237664D01*
X134600000Y60237500D02*
X135600000Y60237500D01*
X134599992Y47237664D02*
X134599992Y46237664D01*
X149399992Y60237664D02*
X148399992Y60237664D01*
X134600000Y59237500D02*
X134600000Y60237500D01*
%TO.C,S33*%
X130649992Y-7012336D02*
X131649992Y-7012336D01*
X131650000Y6987500D02*
X131650000Y5987500D01*
X117850000Y-7012500D02*
X116850000Y-7012500D01*
X131649992Y-7012336D02*
X131649992Y-6012336D01*
X116850000Y6987500D02*
X117850000Y6987500D01*
X116849992Y-6012336D02*
X116849992Y-7012336D01*
X131649992Y6987664D02*
X130649992Y6987664D01*
X116850000Y5987500D02*
X116850000Y6987500D01*
%TO.C,S34*%
X130649992Y10737664D02*
X131649992Y10737664D01*
X131650000Y24737500D02*
X131650000Y23737500D01*
X117850000Y10737500D02*
X116850000Y10737500D01*
X131649992Y10737664D02*
X131649992Y11737664D01*
X116850000Y24737500D02*
X117850000Y24737500D01*
X116849992Y11737664D02*
X116849992Y10737664D01*
X131649992Y24737664D02*
X130649992Y24737664D01*
X116850000Y23737500D02*
X116850000Y24737500D01*
%TO.C,S35*%
X130649992Y28487664D02*
X131649992Y28487664D01*
X131650000Y42487500D02*
X131650000Y41487500D01*
X117850000Y28487500D02*
X116850000Y28487500D01*
X131649992Y28487664D02*
X131649992Y29487664D01*
X116850000Y42487500D02*
X117850000Y42487500D01*
X116849992Y29487664D02*
X116849992Y28487664D01*
X131649992Y42487664D02*
X130649992Y42487664D01*
X116850000Y41487500D02*
X116850000Y42487500D01*
%TO.C,S36*%
X130649992Y46237664D02*
X131649992Y46237664D01*
X131650000Y60237500D02*
X131650000Y59237500D01*
X117850000Y46237500D02*
X116850000Y46237500D01*
X131649992Y46237664D02*
X131649992Y47237664D01*
X116850000Y60237500D02*
X117850000Y60237500D01*
X116849992Y47237664D02*
X116849992Y46237664D01*
X131649992Y60237664D02*
X130649992Y60237664D01*
X116850000Y59237500D02*
X116850000Y60237500D01*
%TO.C,S37*%
X112899992Y-7012336D02*
X113899992Y-7012336D01*
X113900000Y6987500D02*
X113900000Y5987500D01*
X100100000Y-7012500D02*
X99100000Y-7012500D01*
X113899992Y-7012336D02*
X113899992Y-6012336D01*
X99100000Y6987500D02*
X100100000Y6987500D01*
X99099992Y-6012336D02*
X99099992Y-7012336D01*
X113899992Y6987664D02*
X112899992Y6987664D01*
X99100000Y5987500D02*
X99100000Y6987500D01*
%TO.C,S38*%
X112899992Y10737664D02*
X113899992Y10737664D01*
X113900000Y24737500D02*
X113900000Y23737500D01*
X100100000Y10737500D02*
X99100000Y10737500D01*
X113899992Y10737664D02*
X113899992Y11737664D01*
X99100000Y24737500D02*
X100100000Y24737500D01*
X99099992Y11737664D02*
X99099992Y10737664D01*
X113899992Y24737664D02*
X112899992Y24737664D01*
X99100000Y23737500D02*
X99100000Y24737500D01*
%TO.C,S39*%
X112899992Y28487664D02*
X113899992Y28487664D01*
X113900000Y42487500D02*
X113900000Y41487500D01*
X100100000Y28487500D02*
X99100000Y28487500D01*
X113899992Y28487664D02*
X113899992Y29487664D01*
X99100000Y42487500D02*
X100100000Y42487500D01*
X99099992Y29487664D02*
X99099992Y28487664D01*
X113899992Y42487664D02*
X112899992Y42487664D01*
X99100000Y41487500D02*
X99100000Y42487500D01*
%TO.C,S40*%
X112899992Y46237664D02*
X113899992Y46237664D01*
X113900000Y60237500D02*
X113900000Y59237500D01*
X100100000Y46237500D02*
X99100000Y46237500D01*
X113899992Y46237664D02*
X113899992Y47237664D01*
X99100000Y60237500D02*
X100100000Y60237500D01*
X99099992Y47237664D02*
X99099992Y46237664D01*
X113899992Y60237664D02*
X112899992Y60237664D01*
X99100000Y59237500D02*
X99100000Y60237500D01*
D11*
%TO.C,D1*%
X17500000Y-4750000D02*
X17000000Y-4750000D01*
X17500000Y-4350000D02*
X18100000Y-4750000D01*
X17500000Y-5150000D02*
X17500000Y-4350000D01*
X18100000Y-4750000D02*
X17500000Y-5150000D01*
X18100000Y-4750000D02*
X18100000Y-4200000D01*
X18100000Y-4750000D02*
X18100000Y-5300000D01*
X18500000Y-4750000D02*
X18100000Y-4750000D01*
%TO.C,D2*%
X17500000Y13000000D02*
X17000000Y13000000D01*
X17500000Y13400000D02*
X18100000Y13000000D01*
X17500000Y12600000D02*
X17500000Y13400000D01*
X18100000Y13000000D02*
X17500000Y12600000D01*
X18100000Y13000000D02*
X18100000Y13550000D01*
X18100000Y13000000D02*
X18100000Y12450000D01*
X18500000Y13000000D02*
X18100000Y13000000D01*
%TO.C,D3*%
X17500000Y30750000D02*
X17000000Y30750000D01*
X17500000Y31150000D02*
X18100000Y30750000D01*
X17500000Y30350000D02*
X17500000Y31150000D01*
X18100000Y30750000D02*
X17500000Y30350000D01*
X18100000Y30750000D02*
X18100000Y31300000D01*
X18100000Y30750000D02*
X18100000Y30200000D01*
X18500000Y30750000D02*
X18100000Y30750000D01*
%TO.C,D4*%
X17500000Y48500000D02*
X17000000Y48500000D01*
X17500000Y48900000D02*
X18100000Y48500000D01*
X17500000Y48100000D02*
X17500000Y48900000D01*
X18100000Y48500000D02*
X17500000Y48100000D01*
X18100000Y48500000D02*
X18100000Y49050000D01*
X18100000Y48500000D02*
X18100000Y47950000D01*
X18500000Y48500000D02*
X18100000Y48500000D01*
%TO.C,D5*%
X35250000Y-4750000D02*
X34750000Y-4750000D01*
X35250000Y-4350000D02*
X35850000Y-4750000D01*
X35250000Y-5150000D02*
X35250000Y-4350000D01*
X35850000Y-4750000D02*
X35250000Y-5150000D01*
X35850000Y-4750000D02*
X35850000Y-4200000D01*
X35850000Y-4750000D02*
X35850000Y-5300000D01*
X36250000Y-4750000D02*
X35850000Y-4750000D01*
%TO.C,D6*%
X35250000Y13000000D02*
X34750000Y13000000D01*
X35250000Y13400000D02*
X35850000Y13000000D01*
X35250000Y12600000D02*
X35250000Y13400000D01*
X35850000Y13000000D02*
X35250000Y12600000D01*
X35850000Y13000000D02*
X35850000Y13550000D01*
X35850000Y13000000D02*
X35850000Y12450000D01*
X36250000Y13000000D02*
X35850000Y13000000D01*
%TO.C,D7*%
X35250000Y30750000D02*
X34750000Y30750000D01*
X35250000Y31150000D02*
X35850000Y30750000D01*
X35250000Y30350000D02*
X35250000Y31150000D01*
X35850000Y30750000D02*
X35250000Y30350000D01*
X35850000Y30750000D02*
X35850000Y31300000D01*
X35850000Y30750000D02*
X35850000Y30200000D01*
X36250000Y30750000D02*
X35850000Y30750000D01*
%TO.C,D8*%
X35250000Y48500000D02*
X34750000Y48500000D01*
X35250000Y48900000D02*
X35850000Y48500000D01*
X35250000Y48100000D02*
X35250000Y48900000D01*
X35850000Y48500000D02*
X35250000Y48100000D01*
X35850000Y48500000D02*
X35850000Y49050000D01*
X35850000Y48500000D02*
X35850000Y47950000D01*
X36250000Y48500000D02*
X35850000Y48500000D01*
%TO.C,D9*%
X53000000Y-4750000D02*
X52500000Y-4750000D01*
X53000000Y-4350000D02*
X53600000Y-4750000D01*
X53000000Y-5150000D02*
X53000000Y-4350000D01*
X53600000Y-4750000D02*
X53000000Y-5150000D01*
X53600000Y-4750000D02*
X53600000Y-4200000D01*
X53600000Y-4750000D02*
X53600000Y-5300000D01*
X54000000Y-4750000D02*
X53600000Y-4750000D01*
%TO.C,D10*%
X53000000Y13000000D02*
X52500000Y13000000D01*
X53000000Y13400000D02*
X53600000Y13000000D01*
X53000000Y12600000D02*
X53000000Y13400000D01*
X53600000Y13000000D02*
X53000000Y12600000D01*
X53600000Y13000000D02*
X53600000Y13550000D01*
X53600000Y13000000D02*
X53600000Y12450000D01*
X54000000Y13000000D02*
X53600000Y13000000D01*
%TO.C,D11*%
X53000000Y30750000D02*
X52500000Y30750000D01*
X53000000Y31150000D02*
X53600000Y30750000D01*
X53000000Y30350000D02*
X53000000Y31150000D01*
X53600000Y30750000D02*
X53000000Y30350000D01*
X53600000Y30750000D02*
X53600000Y31300000D01*
X53600000Y30750000D02*
X53600000Y30200000D01*
X54000000Y30750000D02*
X53600000Y30750000D01*
%TO.C,D12*%
X53000000Y48500000D02*
X52500000Y48500000D01*
X53000000Y48900000D02*
X53600000Y48500000D01*
X53000000Y48100000D02*
X53000000Y48900000D01*
X53600000Y48500000D02*
X53000000Y48100000D01*
X53600000Y48500000D02*
X53600000Y49050000D01*
X53600000Y48500000D02*
X53600000Y47950000D01*
X54000000Y48500000D02*
X53600000Y48500000D01*
%TO.C,D13*%
X70750000Y-4750000D02*
X70250000Y-4750000D01*
X70750000Y-4350000D02*
X71350000Y-4750000D01*
X70750000Y-5150000D02*
X70750000Y-4350000D01*
X71350000Y-4750000D02*
X70750000Y-5150000D01*
X71350000Y-4750000D02*
X71350000Y-4200000D01*
X71350000Y-4750000D02*
X71350000Y-5300000D01*
X71750000Y-4750000D02*
X71350000Y-4750000D01*
%TO.C,D14*%
X70750000Y13000000D02*
X70250000Y13000000D01*
X70750000Y13400000D02*
X71350000Y13000000D01*
X70750000Y12600000D02*
X70750000Y13400000D01*
X71350000Y13000000D02*
X70750000Y12600000D01*
X71350000Y13000000D02*
X71350000Y13550000D01*
X71350000Y13000000D02*
X71350000Y12450000D01*
X71750000Y13000000D02*
X71350000Y13000000D01*
%TO.C,D15*%
X70750000Y30750000D02*
X70250000Y30750000D01*
X70750000Y31150000D02*
X71350000Y30750000D01*
X70750000Y30350000D02*
X70750000Y31150000D01*
X71350000Y30750000D02*
X70750000Y30350000D01*
X71350000Y30750000D02*
X71350000Y31300000D01*
X71350000Y30750000D02*
X71350000Y30200000D01*
X71750000Y30750000D02*
X71350000Y30750000D01*
%TO.C,D16*%
X70750000Y48500000D02*
X70250000Y48500000D01*
X70750000Y48900000D02*
X71350000Y48500000D01*
X70750000Y48100000D02*
X70750000Y48900000D01*
X71350000Y48500000D02*
X70750000Y48100000D01*
X71350000Y48500000D02*
X71350000Y49050000D01*
X71350000Y48500000D02*
X71350000Y47950000D01*
X71750000Y48500000D02*
X71350000Y48500000D01*
%TO.C,D17*%
X88500000Y-4750000D02*
X88000000Y-4750000D01*
X88500000Y-4350000D02*
X89100000Y-4750000D01*
X88500000Y-5150000D02*
X88500000Y-4350000D01*
X89100000Y-4750000D02*
X88500000Y-5150000D01*
X89100000Y-4750000D02*
X89100000Y-4200000D01*
X89100000Y-4750000D02*
X89100000Y-5300000D01*
X89500000Y-4750000D02*
X89100000Y-4750000D01*
%TO.C,D18*%
X88500000Y13000000D02*
X88000000Y13000000D01*
X88500000Y13400000D02*
X89100000Y13000000D01*
X88500000Y12600000D02*
X88500000Y13400000D01*
X89100000Y13000000D02*
X88500000Y12600000D01*
X89100000Y13000000D02*
X89100000Y13550000D01*
X89100000Y13000000D02*
X89100000Y12450000D01*
X89500000Y13000000D02*
X89100000Y13000000D01*
%TO.C,D19*%
X88500000Y30750000D02*
X88000000Y30750000D01*
X88500000Y31150000D02*
X89100000Y30750000D01*
X88500000Y30350000D02*
X88500000Y31150000D01*
X89100000Y30750000D02*
X88500000Y30350000D01*
X89100000Y30750000D02*
X89100000Y31300000D01*
X89100000Y30750000D02*
X89100000Y30200000D01*
X89500000Y30750000D02*
X89100000Y30750000D01*
%TO.C,D20*%
X88500000Y48500000D02*
X88000000Y48500000D01*
X88500000Y48900000D02*
X89100000Y48500000D01*
X88500000Y48100000D02*
X88500000Y48900000D01*
X89100000Y48500000D02*
X88500000Y48100000D01*
X89100000Y48500000D02*
X89100000Y49050000D01*
X89100000Y48500000D02*
X89100000Y47950000D01*
X89500000Y48500000D02*
X89100000Y48500000D01*
D10*
%TO.C,T1*%
X-1950000Y-7725000D02*
X1950000Y-7725000D01*
X0Y-7725000D02*
X3300000Y-7725000D01*
X3300000Y-7725000D02*
X3300000Y-4875000D01*
X3300000Y-4875000D02*
X-3300000Y-4875000D01*
X-3300000Y-4875000D02*
X-3300000Y-7725000D01*
X0Y-7725000D02*
X-3300000Y-7725000D01*
D11*
%TO.C,D21*%
X177250000Y-4750000D02*
X176750000Y-4750000D01*
X177250000Y-4350000D02*
X177850000Y-4750000D01*
X177250000Y-5150000D02*
X177250000Y-4350000D01*
X177850000Y-4750000D02*
X177250000Y-5150000D01*
X177850000Y-4750000D02*
X177850000Y-4200000D01*
X177850000Y-4750000D02*
X177850000Y-5300000D01*
X178250000Y-4750000D02*
X177850000Y-4750000D01*
%TO.C,D22*%
X177250000Y13000000D02*
X176750000Y13000000D01*
X177250000Y13400000D02*
X177850000Y13000000D01*
X177250000Y12600000D02*
X177250000Y13400000D01*
X177850000Y13000000D02*
X177250000Y12600000D01*
X177850000Y13000000D02*
X177850000Y13550000D01*
X177850000Y13000000D02*
X177850000Y12450000D01*
X178250000Y13000000D02*
X177850000Y13000000D01*
%TO.C,D23*%
X177250000Y30750000D02*
X176750000Y30750000D01*
X177250000Y31150000D02*
X177850000Y30750000D01*
X177250000Y30350000D02*
X177250000Y31150000D01*
X177850000Y30750000D02*
X177250000Y30350000D01*
X177850000Y30750000D02*
X177850000Y31300000D01*
X177850000Y30750000D02*
X177850000Y30200000D01*
X178250000Y30750000D02*
X177850000Y30750000D01*
%TO.C,D24*%
X177250000Y48500000D02*
X176750000Y48500000D01*
X177250000Y48900000D02*
X177850000Y48500000D01*
X177250000Y48100000D02*
X177250000Y48900000D01*
X177850000Y48500000D02*
X177250000Y48100000D01*
X177850000Y48500000D02*
X177850000Y49050000D01*
X177850000Y48500000D02*
X177850000Y47950000D01*
X178250000Y48500000D02*
X177850000Y48500000D01*
%TO.C,D25*%
X159500000Y-4750000D02*
X159000000Y-4750000D01*
X159500000Y-4350000D02*
X160100000Y-4750000D01*
X159500000Y-5150000D02*
X159500000Y-4350000D01*
X160100000Y-4750000D02*
X159500000Y-5150000D01*
X160100000Y-4750000D02*
X160100000Y-4200000D01*
X160100000Y-4750000D02*
X160100000Y-5300000D01*
X160500000Y-4750000D02*
X160100000Y-4750000D01*
%TO.C,D26*%
X159500000Y13000000D02*
X159000000Y13000000D01*
X159500000Y13400000D02*
X160100000Y13000000D01*
X159500000Y12600000D02*
X159500000Y13400000D01*
X160100000Y13000000D02*
X159500000Y12600000D01*
X160100000Y13000000D02*
X160100000Y13550000D01*
X160100000Y13000000D02*
X160100000Y12450000D01*
X160500000Y13000000D02*
X160100000Y13000000D01*
%TO.C,D27*%
X159500000Y30750000D02*
X159000000Y30750000D01*
X159500000Y31150000D02*
X160100000Y30750000D01*
X159500000Y30350000D02*
X159500000Y31150000D01*
X160100000Y30750000D02*
X159500000Y30350000D01*
X160100000Y30750000D02*
X160100000Y31300000D01*
X160100000Y30750000D02*
X160100000Y30200000D01*
X160500000Y30750000D02*
X160100000Y30750000D01*
%TO.C,D28*%
X159500000Y48500000D02*
X159000000Y48500000D01*
X159500000Y48900000D02*
X160100000Y48500000D01*
X159500000Y48100000D02*
X159500000Y48900000D01*
X160100000Y48500000D02*
X159500000Y48100000D01*
X160100000Y48500000D02*
X160100000Y49050000D01*
X160100000Y48500000D02*
X160100000Y47950000D01*
X160500000Y48500000D02*
X160100000Y48500000D01*
%TO.C,D29*%
X141750000Y-4750000D02*
X141250000Y-4750000D01*
X141750000Y-4350000D02*
X142350000Y-4750000D01*
X141750000Y-5150000D02*
X141750000Y-4350000D01*
X142350000Y-4750000D02*
X141750000Y-5150000D01*
X142350000Y-4750000D02*
X142350000Y-4200000D01*
X142350000Y-4750000D02*
X142350000Y-5300000D01*
X142750000Y-4750000D02*
X142350000Y-4750000D01*
%TO.C,D30*%
X141750000Y13000000D02*
X141250000Y13000000D01*
X141750000Y13400000D02*
X142350000Y13000000D01*
X141750000Y12600000D02*
X141750000Y13400000D01*
X142350000Y13000000D02*
X141750000Y12600000D01*
X142350000Y13000000D02*
X142350000Y13550000D01*
X142350000Y13000000D02*
X142350000Y12450000D01*
X142750000Y13000000D02*
X142350000Y13000000D01*
%TO.C,D31*%
X141750000Y30750000D02*
X141250000Y30750000D01*
X141750000Y31150000D02*
X142350000Y30750000D01*
X141750000Y30350000D02*
X141750000Y31150000D01*
X142350000Y30750000D02*
X141750000Y30350000D01*
X142350000Y30750000D02*
X142350000Y31300000D01*
X142350000Y30750000D02*
X142350000Y30200000D01*
X142750000Y30750000D02*
X142350000Y30750000D01*
%TO.C,D32*%
X141750000Y48500000D02*
X141250000Y48500000D01*
X141750000Y48900000D02*
X142350000Y48500000D01*
X141750000Y48100000D02*
X141750000Y48900000D01*
X142350000Y48500000D02*
X141750000Y48100000D01*
X142350000Y48500000D02*
X142350000Y49050000D01*
X142350000Y48500000D02*
X142350000Y47950000D01*
X142750000Y48500000D02*
X142350000Y48500000D01*
%TO.C,D33*%
X124000000Y-4750000D02*
X123500000Y-4750000D01*
X124000000Y-4350000D02*
X124600000Y-4750000D01*
X124000000Y-5150000D02*
X124000000Y-4350000D01*
X124600000Y-4750000D02*
X124000000Y-5150000D01*
X124600000Y-4750000D02*
X124600000Y-4200000D01*
X124600000Y-4750000D02*
X124600000Y-5300000D01*
X125000000Y-4750000D02*
X124600000Y-4750000D01*
%TO.C,D34*%
X124000000Y13000000D02*
X123500000Y13000000D01*
X124000000Y13400000D02*
X124600000Y13000000D01*
X124000000Y12600000D02*
X124000000Y13400000D01*
X124600000Y13000000D02*
X124000000Y12600000D01*
X124600000Y13000000D02*
X124600000Y13550000D01*
X124600000Y13000000D02*
X124600000Y12450000D01*
X125000000Y13000000D02*
X124600000Y13000000D01*
%TO.C,D35*%
X124000000Y30750000D02*
X123500000Y30750000D01*
X124000000Y31150000D02*
X124600000Y30750000D01*
X124000000Y30350000D02*
X124000000Y31150000D01*
X124600000Y30750000D02*
X124000000Y30350000D01*
X124600000Y30750000D02*
X124600000Y31300000D01*
X124600000Y30750000D02*
X124600000Y30200000D01*
X125000000Y30750000D02*
X124600000Y30750000D01*
%TO.C,D36*%
X124000000Y48500000D02*
X123500000Y48500000D01*
X124000000Y48900000D02*
X124600000Y48500000D01*
X124000000Y48100000D02*
X124000000Y48900000D01*
X124600000Y48500000D02*
X124000000Y48100000D01*
X124600000Y48500000D02*
X124600000Y49050000D01*
X124600000Y48500000D02*
X124600000Y47950000D01*
X125000000Y48500000D02*
X124600000Y48500000D01*
%TO.C,D37*%
X106250000Y-4750000D02*
X105750000Y-4750000D01*
X106250000Y-4350000D02*
X106850000Y-4750000D01*
X106250000Y-5150000D02*
X106250000Y-4350000D01*
X106850000Y-4750000D02*
X106250000Y-5150000D01*
X106850000Y-4750000D02*
X106850000Y-4200000D01*
X106850000Y-4750000D02*
X106850000Y-5300000D01*
X107250000Y-4750000D02*
X106850000Y-4750000D01*
%TO.C,D38*%
X106250000Y13000000D02*
X105750000Y13000000D01*
X106250000Y13400000D02*
X106850000Y13000000D01*
X106250000Y12600000D02*
X106250000Y13400000D01*
X106850000Y13000000D02*
X106250000Y12600000D01*
X106850000Y13000000D02*
X106850000Y13550000D01*
X106850000Y13000000D02*
X106850000Y12450000D01*
X107250000Y13000000D02*
X106850000Y13000000D01*
%TO.C,D39*%
X106250000Y30750000D02*
X105750000Y30750000D01*
X106250000Y31150000D02*
X106850000Y30750000D01*
X106250000Y30350000D02*
X106250000Y31150000D01*
X106850000Y30750000D02*
X106250000Y30350000D01*
X106850000Y30750000D02*
X106850000Y31300000D01*
X106850000Y30750000D02*
X106850000Y30200000D01*
X107250000Y30750000D02*
X106850000Y30750000D01*
%TO.C,D40*%
X106250000Y48500000D02*
X105750000Y48500000D01*
X106250000Y48900000D02*
X106850000Y48500000D01*
X106250000Y48100000D02*
X106250000Y48900000D01*
X106850000Y48500000D02*
X106250000Y48100000D01*
X106850000Y48500000D02*
X106850000Y49050000D01*
X106850000Y48500000D02*
X106850000Y47950000D01*
X107250000Y48500000D02*
X106850000Y48500000D01*
%TD*%
D12*
%TO.C,*%
X6870000Y58345000D03*
D13*
X6870000Y55805000D03*
X6870000Y53265000D03*
X6870000Y50725000D03*
X6870000Y48185000D03*
X6870000Y45645000D03*
X6870000Y43105000D03*
X6870000Y40565000D03*
X6870000Y38025000D03*
X6870000Y35485000D03*
X6870000Y32945000D03*
X6870000Y30405000D03*
X-8370000Y30405000D03*
X-8370000Y32945000D03*
X-8370000Y35485000D03*
X-8370000Y38025000D03*
X-8370000Y40565000D03*
X-8370000Y43105000D03*
X-8370000Y45645000D03*
X-8370000Y48185000D03*
X-8370000Y50725000D03*
X-8370000Y53265000D03*
X-8370000Y55805000D03*
X-8370000Y58345000D03*
%TD*%
M02*
