M48
; DRILL file {KiCad (6.0.4)} date Sun Nov 13 15:40:43 2022
; FORMAT={-:-/ absolute / inch / decimal}
; #@! TF.CreationDate,2022-11-13T15:40:43-05:00
; #@! TF.GenerationSoftware,Kicad,Pcbnew,(6.0.4)
; #@! TF.FileFunction,Plated,1,2,PTH
FMAT,2
INCH
; #@! TA.AperFunction,Plated,PTH,ComponentDrill
T1C0.0118
; #@! TA.AperFunction,Plated,PTH,ViaDrill
T2C0.0157
; #@! TA.AperFunction,Plated,PTH,ComponentDrill
T3C0.0430
; #@! TA.AperFunction,Plated,PTH,ComponentDrill
T4C0.0433
%
G90
G05
T1
X-0.0394Y1.0531
X0.0394Y1.0531
T2
X0.0293Y-0.1696
T3
X-0.3295Y2.297
X-0.3295Y2.197
X-0.3295Y2.097
X-0.3295Y1.997
X-0.3295Y1.897
X-0.3295Y1.797
X-0.3295Y1.697
X-0.3295Y1.597
X-0.3295Y1.497
X-0.3295Y1.397
X-0.3295Y1.297
X-0.3295Y1.197
X0.2705Y2.297
X0.2705Y2.197
X0.2705Y2.097
X0.2705Y1.997
X0.2705Y1.897
X0.2705Y1.797
X0.2705Y1.697
X0.2705Y1.597
X0.2705Y1.497
X0.2705Y1.397
X0.2705Y1.297
X0.2705Y1.197
T4
X0.565Y2.2101
X0.565Y2.0172
X0.565Y1.5113
X0.565Y1.3184
X0.565Y0.8125
X0.565Y0.6196
X0.565Y0.1137
X0.565Y-0.0792
X1.2638Y2.2101
X1.2638Y2.0172
X1.2638Y1.5113
X1.2638Y1.3184
X1.2638Y0.8125
X1.2638Y0.6196
X1.2638Y0.1137
X1.2638Y-0.0792
X1.9626Y2.2101
X1.9626Y2.0172
X1.9626Y1.5113
X1.9626Y1.3184
X1.9626Y0.8125
X1.9626Y0.6196
X1.9626Y0.1137
X1.9626Y-0.0792
X2.6614Y2.2101
X2.6614Y2.0172
X2.6614Y1.5113
X2.6614Y1.3184
X2.6614Y0.8125
X2.6614Y0.6196
X2.6614Y0.1137
X2.6614Y-0.0792
X3.3602Y2.2101
X3.3602Y2.0172
X3.3602Y1.5113
X3.3602Y1.3184
X3.3602Y0.8125
X3.3602Y0.6196
X3.3602Y0.1137
X3.3602Y-0.0792
X4.0591Y2.2101
X4.0591Y2.0172
X4.0591Y1.5113
X4.0591Y1.3184
X4.0591Y0.8125
X4.0591Y0.6196
X4.0591Y0.1137
X4.0591Y-0.0792
X4.7579Y2.2101
X4.7579Y2.0172
X4.7579Y1.5113
X4.7579Y1.3184
X4.7579Y0.8125
X4.7579Y0.6196
X4.7579Y0.1137
X4.7579Y-0.0792
X5.4567Y2.2101
X5.4567Y2.0172
X5.4567Y1.5113
X5.4567Y1.3184
X5.4567Y0.8125
X5.4567Y0.6196
X5.4567Y0.1137
X5.4567Y-0.0792
X6.1555Y2.2101
X6.1555Y2.0172
X6.1555Y1.5113
X6.1555Y1.3184
X6.1555Y0.8125
X6.1555Y0.6196
X6.1555Y0.1137
X6.1555Y-0.0792
X6.8543Y2.2101
X6.8543Y2.0172
X6.8543Y1.5113
X6.8543Y1.3184
X6.8543Y0.8125
X6.8543Y0.6196
X6.8543Y0.1137
X6.8543Y-0.0792
T0
M30
